<mxfile host="app.diagrams.net" agent="Mozilla/5.0 (Windows NT 10.0; Win64; x64) AppleWebKit/537.36 (KHTML, like Gecko) Chrome/131.0.0.0 Safari/537.36" version="26.0.9">
  <diagram name="PÃ¡gina-1" id="SbA377YkG3W97QMdw2hX">
    <mxGraphModel dx="1290" dy="565" grid="1" gridSize="10" guides="1" tooltips="1" connect="1" arrows="1" fold="1" page="1" pageScale="1" pageWidth="827" pageHeight="1169" math="0" shadow="0">
      <root>
        <mxCell id="0" />
        <mxCell id="1" parent="0" />
        <mxCell id="fxeTlSMdTs4KLZSYj_dJ-1" value="User" style="shape=umlActor;verticalLabelPosition=bottom;verticalAlign=top;html=1;outlineConnect=0;" parent="1" vertex="1">
          <mxGeometry x="110" y="110" width="30" height="60" as="geometry" />
        </mxCell>
        <mxCell id="fxeTlSMdTs4KLZSYj_dJ-4" value="" style="rounded=0;whiteSpace=wrap;html=1;" parent="1" vertex="1">
          <mxGeometry x="190" y="50" width="340" height="410" as="geometry" />
        </mxCell>
        <mxCell id="hkrXimR1mseKeEBns7rK-1" value="Close" style="ellipse;whiteSpace=wrap;html=1;" parent="1" vertex="1">
          <mxGeometry x="252" y="390" width="70" height="60" as="geometry" />
        </mxCell>
        <mxCell id="hkrXimR1mseKeEBns7rK-2" value="Request reopen" style="ellipse;whiteSpace=wrap;html=1;" parent="1" vertex="1">
          <mxGeometry x="210" y="55" width="100" height="50" as="geometry" />
        </mxCell>
        <mxCell id="hkrXimR1mseKeEBns7rK-4" value="Cancel reopen request" style="ellipse;whiteSpace=wrap;html=1;" parent="1" vertex="1">
          <mxGeometry x="322" y="120" width="76" height="70" as="geometry" />
        </mxCell>
        <mxCell id="hkrXimR1mseKeEBns7rK-5" value="Reopen" style="ellipse;whiteSpace=wrap;html=1;" parent="1" vertex="1">
          <mxGeometry x="260" y="180" width="74" height="50" as="geometry" />
        </mxCell>
        <mxCell id="hkrXimR1mseKeEBns7rK-6" value="Accept reopen" style="ellipse;whiteSpace=wrap;html=1;" parent="1" vertex="1">
          <mxGeometry x="322" y="250" width="70" height="60" as="geometry" />
        </mxCell>
        <mxCell id="hkrXimR1mseKeEBns7rK-7" value="Reject reopen" style="ellipse;whiteSpace=wrap;html=1;" parent="1" vertex="1">
          <mxGeometry x="322" y="320" width="70" height="60" as="geometry" />
        </mxCell>
        <mxCell id="hkrXimR1mseKeEBns7rK-10" value="Organisation Manager" style="shape=umlActor;verticalLabelPosition=bottom;verticalAlign=top;html=1;outlineConnect=0;" parent="1" vertex="1">
          <mxGeometry x="110" y="290" width="30" height="60" as="geometry" />
        </mxCell>
        <mxCell id="hkrXimR1mseKeEBns7rK-13" value="" style="endArrow=classic;html=1;rounded=0;entryX=0.028;entryY=0.676;entryDx=0;entryDy=0;entryPerimeter=0;" parent="1" target="hkrXimR1mseKeEBns7rK-2" edge="1">
          <mxGeometry width="50" height="50" relative="1" as="geometry">
            <mxPoint x="140" y="140" as="sourcePoint" />
            <mxPoint x="250" y="170" as="targetPoint" />
          </mxGeometry>
        </mxCell>
        <mxCell id="hkrXimR1mseKeEBns7rK-14" value="" style="endArrow=classic;html=1;rounded=0;" parent="1" source="fxeTlSMdTs4KLZSYj_dJ-1" target="hkrXimR1mseKeEBns7rK-4" edge="1">
          <mxGeometry width="50" height="50" relative="1" as="geometry">
            <mxPoint x="150" y="143" as="sourcePoint" />
            <mxPoint x="233" y="104" as="targetPoint" />
          </mxGeometry>
        </mxCell>
        <mxCell id="hkrXimR1mseKeEBns7rK-15" value="" style="endArrow=classic;html=1;rounded=0;entryX=0;entryY=0.5;entryDx=0;entryDy=0;" parent="1" target="hkrXimR1mseKeEBns7rK-5" edge="1">
          <mxGeometry width="50" height="50" relative="1" as="geometry">
            <mxPoint x="140" y="140" as="sourcePoint" />
            <mxPoint x="310" y="148" as="targetPoint" />
          </mxGeometry>
        </mxCell>
        <mxCell id="hkrXimR1mseKeEBns7rK-16" value="&amp;lt;&amp;lt;extend&amp;gt;&amp;gt;" style="edgeStyle=none;html=1;startArrow=open;endArrow=none;startSize=12;verticalAlign=bottom;dashed=1;labelBackgroundColor=none;rounded=0;" parent="1" source="hkrXimR1mseKeEBns7rK-2" target="hkrXimR1mseKeEBns7rK-4" edge="1">
          <mxGeometry x="0.7663" y="24" width="160" relative="1" as="geometry">
            <mxPoint x="360" y="90" as="sourcePoint" />
            <mxPoint x="520" y="90" as="targetPoint" />
            <mxPoint as="offset" />
          </mxGeometry>
        </mxCell>
        <mxCell id="hkrXimR1mseKeEBns7rK-17" value="" style="endArrow=classic;html=1;rounded=0;" parent="1" target="hkrXimR1mseKeEBns7rK-6" edge="1">
          <mxGeometry width="50" height="50" relative="1" as="geometry">
            <mxPoint x="150" y="320" as="sourcePoint" />
            <mxPoint x="270" y="215" as="targetPoint" />
          </mxGeometry>
        </mxCell>
        <mxCell id="hkrXimR1mseKeEBns7rK-18" value="" style="endArrow=classic;html=1;rounded=0;" parent="1" target="hkrXimR1mseKeEBns7rK-7" edge="1">
          <mxGeometry width="50" height="50" relative="1" as="geometry">
            <mxPoint x="150" y="320" as="sourcePoint" />
            <mxPoint x="263" y="292" as="targetPoint" />
          </mxGeometry>
        </mxCell>
        <mxCell id="hkrXimR1mseKeEBns7rK-19" value="" style="endArrow=classic;html=1;rounded=0;entryX=0.006;entryY=0.283;entryDx=0;entryDy=0;entryPerimeter=0;" parent="1" target="hkrXimR1mseKeEBns7rK-1" edge="1">
          <mxGeometry width="50" height="50" relative="1" as="geometry">
            <mxPoint x="150" y="320" as="sourcePoint" />
            <mxPoint x="274" y="345" as="targetPoint" />
          </mxGeometry>
        </mxCell>
        <mxCell id="hkrXimR1mseKeEBns7rK-20" value="Extends" style="endArrow=block;endSize=16;endFill=0;html=1;rounded=0;exitX=0.5;exitY=0;exitDx=0;exitDy=0;exitPerimeter=0;" parent="1" source="hkrXimR1mseKeEBns7rK-10" edge="1">
          <mxGeometry width="160" relative="1" as="geometry">
            <mxPoint x="90" y="210" as="sourcePoint" />
            <mxPoint x="125" y="200" as="targetPoint" />
          </mxGeometry>
        </mxCell>
        <mxCell id="nqT8Y8TUH8echoSQjHEo-1" value="&amp;lt;&amp;lt;include&amp;gt;&amp;gt;" style="html=1;verticalAlign=bottom;labelBackgroundColor=none;endArrow=open;endFill=0;dashed=1;rounded=0;entryX=1;entryY=1;entryDx=0;entryDy=0;" edge="1" parent="1" target="hkrXimR1mseKeEBns7rK-5">
          <mxGeometry x="-1" y="-14" width="160" relative="1" as="geometry">
            <mxPoint x="360" y="250" as="sourcePoint" />
            <mxPoint x="520" y="250" as="targetPoint" />
            <mxPoint x="2" y="1" as="offset" />
          </mxGeometry>
        </mxCell>
      </root>
    </mxGraphModel>
  </diagram>
</mxfile>
